HIERARCHY
ROOT Hips
{
	OFFSET 0.000000 97.167313 0.000000
	CHANNELS 6 Xposition Yposition Zposition Xrotation Yrotation Zrotation
	JOINT Spine
	{
		OFFSET 0.000000 13.784798 0.064400
		CHANNELS 3 Xrotation Yrotation Zrotation
		JOINT Spine1
		{
			OFFSET 0.000000 12.037903 0.404700
			CHANNELS 3 Xrotation Yrotation Zrotation
			JOINT Spine2
			{
				OFFSET 0.000000 17.795601 0.420200
				CHANNELS 3 Xrotation Yrotation Zrotation
				JOINT Neck
				{
					OFFSET 0.000000 39.131302 11.954600
					CHANNELS 3 Xrotation Yrotation Zrotation
					JOINT Head
					{
						OFFSET 0.000000 14.456192 15.627699
						CHANNELS 3 Xrotation Yrotation Zrotation
						JOINT HeadTop_End
						{
							OFFSET 0.000000 15.703506 7.603401
							CHANNELS 3 Xrotation Yrotation Zrotation
							End Site
							{
								OFFSET 0.000000 17.447403 0.000000
							}
						}
					}
				}
				JOINT LeftShoulder
				{
					OFFSET 17.399500 24.608795 1.168800
					CHANNELS 3 Xrotation Yrotation Zrotation
					JOINT LeftArm
					{
						OFFSET 18.980635 5.765305 1.818600
						CHANNELS 3 Xrotation Yrotation Zrotation
						JOINT LeftForeArm
						{
							OFFSET 49.290169 0.000000 0.000000
							CHANNELS 3 Xrotation Yrotation Zrotation
							JOINT LeftHand
							{
								OFFSET 31.562012 0.000000 0.000000
								CHANNELS 3 Xrotation Yrotation Zrotation
								JOINT LeftHandThumb1
								{
									OFFSET 6.133995 -4.388519 7.076070
									CHANNELS 3 Xrotation Yrotation Zrotation
									JOINT LeftHandThumb2
									{
										OFFSET 6.037666 -3.485840 3.485847
										CHANNELS 3 Xrotation Yrotation Zrotation
										JOINT LeftHandThumb3
										{
											OFFSET 6.496506 -3.750763 3.750761
											CHANNELS 3 Xrotation Yrotation Zrotation
											JOINT LeftHandThumb4
											{
												OFFSET 5.616882 -3.242905 3.242910
												CHANNELS 3 Xrotation Yrotation Zrotation
												End Site
												{
													OFFSET -1.254608 7.132141 0.375429
												}
											}
										}
									}
								}
								JOINT LeftHandPinky1
								{
									OFFSET 18.920792 -0.453171 -11.426712
									CHANNELS 3 Xrotation Yrotation Zrotation
									JOINT LeftHandPinky2
									{
										OFFSET 4.919586 0.000000 0.000000
										CHANNELS 3 Xrotation Yrotation Zrotation
										JOINT LeftHandPinky3
										{
											OFFSET 5.233047 0.000000 0.000000
											CHANNELS 3 Xrotation Yrotation Zrotation
											JOINT LeftHandPinky4
											{
												OFFSET 5.571716 0.000000 0.000000
												CHANNELS 3 Xrotation Yrotation Zrotation
												End Site
												{
													OFFSET -3.459808 4.342407 -0.466164
												}
											}
										}
									}
								}
								JOINT LeftHandRing1
								{
									OFFSET 22.726120 -0.094986 -6.500475
									CHANNELS 3 Xrotation Yrotation Zrotation
									JOINT LeftHandRing2
									{
										OFFSET 6.408615 0.000000 0.000000
										CHANNELS 3 Xrotation Yrotation Zrotation
										JOINT LeftHandRing3
										{
											OFFSET 6.150223 0.000000 0.000000
											CHANNELS 3 Xrotation Yrotation Zrotation
											JOINT LeftHandRing4
											{
												OFFSET 6.145386 0.000000 0.000000
												CHANNELS 3 Xrotation Yrotation Zrotation
												End Site
												{
													OFFSET -3.671402 4.923981 -0.202372
												}
											}
										}
									}
								}
								JOINT LeftHandMiddle1
								{
									OFFSET 23.373947 0.000000 0.000001
									CHANNELS 3 Xrotation Yrotation Zrotation
									JOINT LeftHandMiddle2
									{
										OFFSET 6.996567 0.000000 0.000000
										CHANNELS 3 Xrotation Yrotation Zrotation
										JOINT LeftHandMiddle3
										{
											OFFSET 7.015945 0.000000 0.000000
											CHANNELS 3 Xrotation Yrotation Zrotation
											JOINT LeftHandMiddle4
											{
												OFFSET 7.721573 0.000000 0.000000
												CHANNELS 3 Xrotation Yrotation Zrotation
												End Site
												{
													OFFSET -4.651108 6.158463 0.251582
												}
											}
										}
									}
								}
								JOINT LeftHandIndex1
								{
									OFFSET 21.310577 -0.490082 6.209344
									CHANNELS 3 Xrotation Yrotation Zrotation
									JOINT LeftHandIndex2
									{
										OFFSET 7.536453 0.000000 0.000000
										CHANNELS 3 Xrotation Yrotation Zrotation
										JOINT LeftHandIndex3
										{
											OFFSET 7.512344 0.000000 0.000000
											CHANNELS 3 Xrotation Yrotation Zrotation
											JOINT LeftHandIndex4
											{
												OFFSET 10.212402 0.000000 0.000001
												CHANNELS 3 Xrotation Yrotation Zrotation
												End Site
												{
													OFFSET -5.180801 8.690506 1.388433
												}
											}
										}
									}
								}
							}
						}
					}
				}
				JOINT RightShoulder
				{
					OFFSET -17.399500 24.608795 1.168800
					CHANNELS 3 Xrotation Yrotation Zrotation
					JOINT RightArm
					{
						OFFSET -18.980635 5.765305 1.818600
						CHANNELS 3 Xrotation Yrotation Zrotation
						JOINT RightForeArm
						{
							OFFSET -49.290169 0.000000 0.000000
							CHANNELS 3 Xrotation Yrotation Zrotation
							JOINT RightHand
							{
								OFFSET -31.562012 0.000000 0.000000
								CHANNELS 3 Xrotation Yrotation Zrotation
								JOINT RightHandThumb1
								{
									OFFSET -6.133995 -4.388519 7.076070
									CHANNELS 3 Xrotation Yrotation Zrotation
									JOINT RightHandThumb2
									{
										OFFSET -6.037666 -3.485840 3.485847
										CHANNELS 3 Xrotation Yrotation Zrotation
										JOINT RightHandThumb3
										{
											OFFSET -6.496506 -3.750763 3.750761
											CHANNELS 3 Xrotation Yrotation Zrotation
											JOINT RightHandThumb4
											{
												OFFSET -5.616882 -3.242905 3.242910
												CHANNELS 3 Xrotation Yrotation Zrotation
												End Site
												{
													OFFSET 1.254608 7.132141 0.375429
												}
											}
										}
									}
								}
								JOINT RightHandIndex1
								{
									OFFSET -21.310577 -0.490082 6.209344
									CHANNELS 3 Xrotation Yrotation Zrotation
									JOINT RightHandIndex2
									{
										OFFSET -7.536453 0.000000 0.000000
										CHANNELS 3 Xrotation Yrotation Zrotation
										JOINT RightHandIndex3
										{
											OFFSET -7.512344 0.000000 0.000000
											CHANNELS 3 Xrotation Yrotation Zrotation
											JOINT RightHandIndex4
											{
												OFFSET -10.212402 0.000000 0.000001
												CHANNELS 3 Xrotation Yrotation Zrotation
												End Site
												{
													OFFSET 5.180801 8.690506 1.388433
												}
											}
										}
									}
								}
								JOINT RightHandMiddle1
								{
									OFFSET -23.373947 0.000000 0.000001
									CHANNELS 3 Xrotation Yrotation Zrotation
									JOINT RightHandMiddle2
									{
										OFFSET -6.996567 0.000000 0.000000
										CHANNELS 3 Xrotation Yrotation Zrotation
										JOINT RightHandMiddle3
										{
											OFFSET -7.015945 0.000000 0.000000
											CHANNELS 3 Xrotation Yrotation Zrotation
											JOINT RightHandMiddle4
											{
												OFFSET -7.721573 0.000000 0.000000
												CHANNELS 3 Xrotation Yrotation Zrotation
												End Site
												{
													OFFSET 4.651108 6.158463 0.251582
												}
											}
										}
									}
								}
								JOINT RightHandRing1
								{
									OFFSET -22.726120 -0.094986 -6.500475
									CHANNELS 3 Xrotation Yrotation Zrotation
									JOINT RightHandRing2
									{
										OFFSET -6.408615 0.000000 0.000000
										CHANNELS 3 Xrotation Yrotation Zrotation
										JOINT RightHandRing3
										{
											OFFSET -6.150223 0.000000 0.000000
											CHANNELS 3 Xrotation Yrotation Zrotation
											JOINT RightHandRing4
											{
												OFFSET -6.145386 0.000000 0.000000
												CHANNELS 3 Xrotation Yrotation Zrotation
												End Site
												{
													OFFSET 3.671402 4.923981 -0.202372
												}
											}
										}
									}
								}
								JOINT RightHandPinky1
								{
									OFFSET -18.920792 -0.453171 -11.426712
									CHANNELS 3 Xrotation Yrotation Zrotation
									JOINT RightHandPinky2
									{
										OFFSET -4.919586 0.000000 0.000000
										CHANNELS 3 Xrotation Yrotation Zrotation
										JOINT RightHandPinky3
										{
											OFFSET -5.233047 0.000000 0.000000
											CHANNELS 3 Xrotation Yrotation Zrotation
											JOINT RightHandPinky4
											{
												OFFSET -5.571716 0.000000 0.000000
												CHANNELS 3 Xrotation Yrotation Zrotation
												End Site
												{
													OFFSET 3.459808 4.342407 -0.466164
												}
											}
										}
									}
								}
							}
						}
					}
				}
			}
		}
	}
	JOINT LeftUpLeg
	{
		OFFSET 19.899099 -7.885101 -3.429500
		CHANNELS 3 Xrotation Yrotation Zrotation
		JOINT LeftLeg
		{
			OFFSET 1.745560 -36.997807 10.304700
			CHANNELS 3 Xrotation Yrotation Zrotation
			JOINT LeftFoot
			{
				OFFSET -1.745558 -29.803308 -13.615400
				CHANNELS 3 Xrotation Yrotation Zrotation
				JOINT LeftToeBase
				{
					OFFSET 1.181900 -18.539904 15.226099
					CHANNELS 3 Xrotation Yrotation Zrotation
					JOINT LeftToe_End
					{
						OFFSET -0.863701 1.402801 16.534700
						CHANNELS 3 Xrotation Yrotation Zrotation
						End Site
						{
							OFFSET 0.000000 16.616566 0.000000
						}
					}
				}
			}
		}
	}
	JOINT RightUpLeg
	{
		OFFSET -19.899099 -7.885101 -3.429500
		CHANNELS 3 Xrotation Yrotation Zrotation
		JOINT RightLeg
		{
			OFFSET -1.745560 -36.997807 10.304700
			CHANNELS 3 Xrotation Yrotation Zrotation
			JOINT RightFoot
			{
				OFFSET 1.745558 -29.803308 -13.615400
				CHANNELS 3 Xrotation Yrotation Zrotation
				JOINT RightToeBase
				{
					OFFSET -1.181900 -18.539904 15.226099
					CHANNELS 3 Xrotation Yrotation Zrotation
					JOINT RightToe_End
					{
						OFFSET 0.863701 1.402801 16.534700
						CHANNELS 3 Xrotation Yrotation Zrotation
						End Site
						{
							OFFSET 0.000000 16.616566 0.000000
						}
					}
				}
			}
		}
	}
}
MOTION
Frames: 4
Frame Time: 0.033333
2.276668 79.924965 112.757439 7.612597 -28.480880 4.603628 15.308305 -4.739914 2.094934 9.262471 -6.605940 2.757685 -2.661351 -7.043505 1.544509 -13.518962 26.908080 -1.457917 -1.092930 15.486407 0.078409 -0.000000 -0.000000 -0.000000 -0.378346 -3.058135 -1.522034 -17.043665 8.518888 -61.093624 -20.125190 -39.009266 -11.668572 2.196634 -17.597999 1.498092 21.414250 0.888514 13.740394 1.766956 14.954458 -8.837505 5.706565 8.483036 -0.820795 -0.000001 -0.000001 -0.000003 1.538702 5.529242 -39.383226 -1.224827 -1.072383 -33.794564 -2.526669 -0.334812 -43.696507 -0.000003 0.000005 -0.000005 2.663086 7.093747 -31.100829 -1.139976 -1.388806 -35.947624 -0.968959 -1.177918 -31.080397 -0.000000 -0.000001 0.000002 1.895434 4.342191 -21.673623 0.165865 -1.792810 -30.043099 0.457495 -1.765241 -25.580604 0.000000 0.000001 -0.000001 0.604284 2.781343 -9.553056 0.061733 -0.620774 -13.625339 -0.020071 -0.853140 -16.592693 0.000003 0.000005 -0.000001 1.679733 2.554771 3.710480 -25.602488 21.208987 71.044349 -25.767667 55.195927 21.616859 13.882142 14.440024 -6.753891 55.149597 18.649551 -29.698267 -0.442489 -14.180572 7.313168 21.666917 -29.244493 9.142383 0.000001 0.000001 0.000002 5.673411 7.584998 36.844120 1.050472 3.824437 68.900162 0.499590 3.026095 62.196515 -0.000000 0.000000 0.000004 -0.125669 1.886040 45.000759 -1.169021 3.204714 68.417636 -0.936427 1.813663 41.107562 -0.000001 0.000001 -0.000004 -5.311940 1.216640 58.508801 -0.745182 1.667611 48.011206 -0.816553 1.840672 53.666637 -0.000002 0.000001 -0.000001 -7.756794 -9.376449 47.263823 -0.526050 1.541547 45.600474 -0.508177 0.803377 24.986627 -0.000002 -0.000000 0.000002 6.852156 -2.152593 -13.002530 33.588200 -4.899890 -5.184381 -34.398834 -6.474532 19.062283 -8.477055 -5.929454 -1.153317 -0.000000 -0.000000 -0.000000 -54.975974 -5.194837 5.068835 36.422236 4.335664 6.517483 -12.470314 1.810532 -5.294758 13.340267 -1.010204 -0.522975 -0.000001 0.000001 0.000000 
1.650970 78.672104 117.120819 7.739850 -28.403340 4.341175 15.256030 -4.668781 2.156273 9.184526 -6.360961 2.840896 -2.740231 -6.820043 1.624512 -13.539738 26.773669 -1.385229 -0.856040 15.376720 0.181077 -0.000001 0.000000 -0.000000 -0.372630 -2.921285 -1.509012 -15.524718 9.001121 -62.529241 -17.663296 -40.023607 -10.481989 2.253203 -18.844536 1.557061 21.414310 0.888389 13.740485 1.767018 14.954347 -8.837784 5.706562 8.483038 -0.820787 -0.000002 0.000003 -0.000002 1.504095 5.488480 -40.385843 -1.254481 -1.119543 -34.800944 -2.558909 -0.372881 -44.702881 0.000000 0.000004 -0.000007 2.634436 7.048059 -32.103180 -1.169432 -1.432322 -36.954325 -0.997783 -1.226497 -32.086801 -0.000002 -0.000001 0.000003 1.885164 4.291045 -22.678864 0.140433 -1.836205 -31.050023 0.433037 -1.810195 -26.587439 -0.000002 0.000005 0.000004 0.606951 2.736704 -10.559538 0.050889 -0.664584 -14.631848 -0.034746 -0.899420 -17.599104 -0.000000 0.000001 0.000001 1.672927 2.604098 3.652532 -25.752902 21.213686 71.579133 -24.792885 54.879795 20.718180 13.760167 14.627707 -7.096514 55.149601 18.649548 -29.698267 -0.442488 -14.180574 7.313169 21.666907 -29.244493 9.142385 0.000000 -0.000001 -0.000000 5.673416 7.585003 36.844113 1.050471 3.824430 68.900162 0.499588 3.026099 62.196515 -0.000001 0.000003 -0.000001 -0.125668 1.886040 45.000749 -1.169020 3.204720 68.417636 -0.936427 1.813662 41.107562 -0.000002 0.000001 -0.000009 -5.311942 1.216642 58.508794 -0.745182 1.667611 48.011206 -0.816554 1.840670 53.666637 -0.000000 0.000001 -0.000003 -7.756792 -9.376443 47.263830 -0.526053 1.541546 45.600474 -0.508181 0.803380 24.986627 0.000002 0.000001 -0.000001 6.836145 -0.242647 -11.806493 39.142916 -9.924686 -6.607549 -32.342568 -7.301406 20.021463 -10.492718 -7.085779 3.349294 -0.000000 -0.000004 0.000000 -56.649705 -3.571774 6.356365 36.319862 0.774653 4.525981 3.678041 -0.449305 -7.650211 12.486562 0.425888 -2.016241 0.000000 -0.000000 0.000000 
1.508476 77.445679 120.892494 7.865864 -29.022382 3.849110 15.268340 -4.319198 2.072223 9.229076 -5.907551 2.877808 -2.689707 -6.388285 1.704082 -13.965839 26.673221 -1.257992 -0.884368 15.321258 0.482810 0.000000 0.000001 -0.000000 -0.366749 -2.780068 -1.495562 -14.307766 9.526541 -63.521101 -15.232287 -40.608681 -9.330364 2.294158 -19.686477 1.598964 21.414339 0.888286 13.740545 1.767081 14.954276 -8.837991 5.706563 8.483040 -0.820792 -0.000000 -0.000000 -0.000002 1.465708 5.444908 -41.475125 -1.288387 -1.169873 -35.894423 -2.595205 -0.413042 -45.796289 -0.000001 -0.000002 -0.000004 2.602277 6.999043 -33.192179 -1.205661 -1.478698 -38.048149 -1.030097 -1.278484 -33.180260 0.000000 0.000000 0.000005 1.873014 4.235659 -23.770942 0.111823 -1.883045 -32.144069 0.405834 -1.858715 -27.681365 -0.000001 -0.000001 0.000009 0.609131 2.689110 -11.653074 0.037058 -0.712115 -15.725346 -0.052506 -0.949429 -18.692585 -0.000001 0.000005 0.000002 1.666711 2.650781 3.598283 -25.772150 21.155010 71.977039 -24.143583 54.819662 20.138225 13.626504 14.642006 -7.326419 55.149601 18.649546 -29.698274 -0.442489 -14.180575 7.313170 21.666916 -29.244483 9.142384 0.000000 -0.000002 0.000001 5.673414 7.585004 36.844117 1.050479 3.824441 68.900155 0.499586 3.026096 62.196515 -0.000002 -0.000001 -0.000001 -0.125666 1.886041 45.000759 -1.169021 3.204713 68.417636 -0.936424 1.813664 41.107558 -0.000001 0.000002 -0.000008 -5.311940 1.216643 58.508801 -0.745183 1.667611 48.011203 -0.816557 1.840670 53.666637 0.000000 -0.000000 -0.000003 -7.756785 -9.376444 47.263826 -0.526054 1.541547 45.600474 -0.508181 0.803375 24.986632 0.000003 -0.000001 -0.000001 0.844811 3.611461 -6.547814 52.506543 -20.601102 -8.518687 -26.652187 -8.645923 11.613364 -10.033232 -9.239585 13.893620 -0.000000 0.000005 -0.000001 -57.729517 -2.965014 6.567040 40.428255 1.676063 3.432966 4.291298 -0.862044 -5.977446 11.654586 1.593251 -3.233106 0.000000 -0.000001 0.000000 
1.315268 76.589424 124.096161 7.862105 -29.746423 3.043541 15.341973 -3.814926 2.154286 9.369388 -5.513636 2.825949 -2.540956 -5.999360 1.713320 -14.115779 26.639273 -1.262035 -1.075580 15.246661 1.114134 0.000001 0.000000 -0.000001 -0.360750 -2.639041 -1.481792 -13.977155 9.879830 -63.803112 -13.050513 -40.674214 -8.349514 2.317981 -19.952624 1.644142 21.414376 0.888249 13.740552 1.767116 14.954223 -8.838109 5.706567 8.483041 -0.820784 0.000000 -0.000004 -0.000002 1.425043 5.400516 -42.605791 -1.324863 -1.221174 -37.029532 -2.634239 -0.453351 -46.931306 0.000003 -0.000001 -0.000004 2.567974 6.948885 -34.322469 -1.244363 -1.525826 -39.183603 -1.064989 -1.331503 -34.315413 -0.000000 0.000000 0.000003 1.859312 4.178463 -24.904512 0.081430 -1.931398 -33.279738 0.376884 -1.908691 -28.816944 0.000001 -0.000000 0.000004 0.610680 2.640668 -12.788208 0.021739 -0.761145 -16.860486 -0.071815 -1.000924 -19.827660 0.000001 0.000002 -0.000003 1.660793 2.697956 3.545826 -25.635279 21.024419 72.272007 -23.716150 55.051414 19.820487 13.473529 14.485489 -7.516493 55.149594 18.649546 -29.698270 -0.442487 -14.180572 7.313168 21.666914 -29.244490 9.142388 0.000000 -0.000001 0.000001 5.673411 7.585004 36.844117 1.050472 3.824439 68.900162 0.499586 3.026100 62.196515 -0.000000 -0.000001 -0.000001 -0.125668 1.886045 45.000759 -1.169020 3.204719 68.417629 -0.936428 1.813664 41.107565 0.000002 0.000001 -0.000004 -5.311941 1.216644 58.508801 -0.745182 1.667612 48.011203 -0.816555 1.840671 53.666637 -0.000000 -0.000001 -0.000002 -7.756790 -9.376438 47.263826 -0.526054 1.541544 45.600471 -0.508182 0.803380 24.986630 0.000003 0.000001 -0.000001 -8.530560 6.691865 -3.424813 63.181483 -27.938621 -6.749258 -13.301857 -7.520572 0.905306 -10.890691 -10.062230 22.183363 0.000001 0.000002 -0.000001 -57.559630 -3.332928 6.870987 44.561052 2.719448 2.631447 1.318023 -1.195382 -4.894910 11.132308 2.254379 -3.923526 -0.000000 -0.000000 0.000000 
